<?xml version="1.0" standalone="no"?>
<!DOCTYPE svg PUBLIC "-//W3C//DTD SVG 20010904//EN"
 "http://www.w3.org/TR/2001/REC-SVG-20010904/DTD/svg10.dtd">
<svg version="1.0" xmlns="http://www.w3.org/2000/svg"
 width="160.000000pt" height="152.000000pt" viewBox="0 0 160.000000 152.000000"
 preserveAspectRatio="xMidYMid meet">

<g transform="translate(0.000000,152.000000) scale(0.100000,-0.100000)"
fill="#000000" stroke="none">
<path d="M698 1173 l-95 -168 99 -3 c54 -1 142 -1 197 0 l98 3 -93 165 c-51
91 -97 166 -102 168 -5 1 -51 -73 -104 -165z"/>
<path d="M522 863 c-21 -38 -53 -94 -71 -125 l-32 -58 175 0 176 0 0 125 0
125 -105 0 -104 0 -39 -67z"/>
<path d="M830 805 l0 -125 176 0 175 0 -32 58 c-18 31 -50 87 -71 125 l-39 67
-104 0 -105 0 0 -125z"/>
<path d="M310 494 c-36 -64 -66 -120 -68 -125 -2 -5 35 -9 82 -9 l86 0 0 125
c0 167 -11 168 -100 9z"/>
<path d="M480 485 l0 -125 320 0 320 0 0 125 0 125 -320 0 -320 0 0 -125z"/>
<path d="M1190 486 l0 -126 86 0 85 0 -42 78 c-77 140 -95 167 -112 170 -15 3
-17 -10 -17 -122z"/>
<path d="M177 258 c-44 -77 -110 -193 -114 -200 -2 -5 156 -8 351 -8 l356 0 0
125 0 125 -285 0 -284 0 -24 -42z"/>
<path d="M830 175 l0 -125 354 0 354 0 -70 125 -70 125 -284 0 -284 0 0 -125z"/>
</g>
</svg>
